<?xml version="1.0" encoding="iso-8859-1"?>
<!-- Generator: Adobe Illustrator 27.0.0, SVG Export Plug-In . SVG Version: 6.00 Build 0)  -->
<svg version="1.1" xmlns="http://www.w3.org/2000/svg" xmlns:xlink="http://www.w3.org/1999/xlink" x="0px" y="0px"
	 viewBox="0 0 2000 2000" style="enable-background:new 0 0 2000 2000;" xml:space="preserve">
<g id="Crow">
	<path d="M1937.017,716.894c22.928-15.482,40.501-34.002,38.88-63.874c-6.444-17.153-14.083-21.47-31.602-17.689
		c-4.46,0.962-8.848,2.264-13.269,3.409c-16.973,7.171-33.947,14.341-54.177,22.887c49.4-34.014,82.789-74.305,83.271-134.396
		c-0.612-5.135-1.225-10.271-1.994-16.722c-32.272,21.113-63.368,41.458-94.465,61.802c-18.451,12.433-36.902,24.866-55.353,37.3
		c19.42-20.513,38.132-41.118,55.417-62.951c32.64-41.226,49.662-87.15,40.642-140.512c-2.003-8.97-4.007-17.943-6.255-28.006
		c-9.627,10.753-15.417,22.261-24.886,30.787c-6.982,9.186-13.964,18.373-20.945,27.559c11.657-29.445,18.828-59.66,20.68-91.021
		c1.867-31.621-2.937-62.484-12.071-92.729c-3.926-5.489-2.974-13.274-9.144-19.046c-24.97,72.023-60.256,138.179-100.958,201.491
		c-40.77,63.418-85.015,124.233-137.21,178.582c-4.317-1.975-4.994-6.58-10.35-7.995c-40.125,24.163-61.483,65.65-90.038,100.582
		c-9.759-14.493-15.531-16.55-32.132-10.978c-5.115,1.716-10.115,3.949-14.896,6.461c-26.273,13.803-49.098,32.437-71.716,51.378
		c-7.831,6.558-14.692,14.398-23.808,19.533c-3.821-5.465-0.999-12.361-6.08-17.241c-1.747,1.326-3.629,2.542-5.268,4.029
		c-30.769,27.918-63.249,53.674-97.047,77.837c-44.376,31.726-88.548,62.67-119.2,110.501c-3.134,4.89-6.432,9.658-9.854,14.334
		c-1.663-8.18-5.029-16.628-11.796-26.392c2.981-0.722,7.172-2.491,9.524-2.957c-1.444-2.771-12.621-7.335-12.342-6.264
		c-0.023-0.093-0.559-2.212-0.559-2.212h10.525c-0.559-3.074-1.071-5.589-1.653-7.568c-2.003-6.986-4.704-7.708-12.645-5.356
		l-4.866-11.247c2.352-1.397,4.657-3.004,7.078-4.471h-9.011l-2.492-5.728c2.375-2.073,4.727-4.308,7.568-6.474
		c-3.493,0-5.425-0.07-7.358,0c-1.048,0.047-2.049,0.07-2.957,0.117l-0.163-0.35l-0.279,0.35
		c-11.713,0.279-11.271-0.769-6.148-14.181c1.211-3.214,2.818-8.034-0.512-9.314c-2.981-1.118-8.686-3.889-11.107,2.632
		c-0.117,0.302-0.233,0.605-0.396,0.908c0,0-1.723-10.711-1.723-10.735c0.047-0.582,0.14-1.164,0.256-1.746
		c1.048-5.402-0.163-7.055-2.584-7.218c-0.932-1.141-2.469-2.887-4.634-5.053c-1.979-1.956-4.471-4.238-7.521-6.683
		c-1.746-1.374-3.656-2.794-5.752-4.238c-1.933-1.351-4.028-2.701-6.288-4.028c-1.467-0.861-2.98-1.746-4.587-2.584
		c-2.235-1.211-4.611-2.375-7.125-3.516c-4.75-2.119-9.99-4.122-15.765-5.845c-1.886-0.559-3.819-1.095-5.821-1.607
		c-0.745-0.186-1.514-0.35-2.282-0.536c-2.795-0.653-5.682-1.235-8.709-1.77c-3.144-0.512-6.381-0.978-9.781-1.304v-0.14
		c-0.186,0.023-0.396,0.047-0.605,0.07c-0.209-0.023-0.419-0.047-0.629-0.07v0.14c-3.05,0.302-5.984,0.699-8.848,1.164
		c-2.818,0.442-5.542,0.978-8.173,1.583c-2.352,0.512-4.634,1.094-6.916,1.723c-1.141-0.093-1.91-0.093-1.421,0.372
		c-6.59,1.933-12.551,4.192-17.86,6.637c-2.073,0.931-4.075,1.933-5.938,2.934c-1.63,0.861-3.19,1.723-4.657,2.608
		c-2.142,1.258-4.122,2.515-5.985,3.773c-2.492,1.723-4.727,3.376-6.706,4.984c-2.725,2.211-5.007,4.261-6.823,6.077
		c-3.213,3.144-5.076,5.495-5.752,6.38c-0.07,0.093-0.139,0.163-0.209,0.279c-0.023,0.024-0.023,0.047-0.07,0.14
		c-0.42,0.652-0.559,1.56-0.42,2.724l-2.212,13.599c-3.283-4.028-6.427-2.981-9.827-1.677c-4.331,1.7-2.049,5.705-1.537,8.36
		c0.605,3.12,3.051,5.868,4.192,8.942c1.583,4.331,1.607,7.148-4.867,6.893c-2.259-0.093-4.447-0.536-6.729-1.025l-2.702,6.264
		l-2.794,6.473l-1.886,4.355l-4.681,10.828c-0.233-0.093-0.466-0.163-0.675-0.256c-8.15-3.144-9.873,2.259-11.783,7.498
		c-1.141,3.143-1.141,6.24,4.098,5.728c1.514-0.163,3.05-0.233,4.587-0.21l-0.605,2.422c-4.541-0.559-7.941,1.607-12.621,6.846
		c3.633,2.189,6.986,2.818,10.269,2.399l-1.374,5.355c-2.794,1.211-4.844,2.887-6.287,5.077c-1.444,2.189-2.282,4.936-2.701,8.266
		c1.909-0.791,3.842-1.467,5.845-2.026c-0.593,5.938-1.828,11.737-3.439,17.467c-5.5-7.081-10.74-14.354-15.587-21.919
		c-30.652-47.831-74.823-78.775-119.2-110.501c-33.799-24.164-66.278-49.92-97.047-77.837c-1.638-1.487-3.521-2.703-5.268-4.029
		c-5.08,4.88-2.259,11.776-6.08,17.241c-9.116-5.135-15.978-12.974-23.808-19.533c-22.618-18.941-45.443-37.575-71.716-51.378
		c-4.781-2.512-9.781-4.745-14.896-6.461c-16.601-5.572-22.374-3.515-32.133,10.978c-28.554-34.932-49.913-76.42-90.037-100.582
		c-5.357,1.416-6.034,6.02-10.35,7.995c-52.195-54.349-96.44-115.164-137.211-178.582
		c-40.702-63.312-75.987-129.467-100.957-201.491c-6.17,5.772-5.218,13.557-9.144,19.046c-9.134,30.244-13.939,61.108-12.071,92.729
		c1.852,31.36,9.023,61.575,20.68,91.021c-6.982-9.186-13.964-18.373-20.945-27.559c-9.468-8.526-15.259-20.034-24.885-30.787
		c-2.248,10.063-4.252,19.035-6.255,28.006c-9.02,53.362,8.003,99.286,40.642,140.512c17.286,21.833,35.998,42.438,55.418,62.951
		c-18.451-12.433-36.902-24.866-55.353-37.3c-31.097-20.345-62.193-40.689-94.465-61.802c-0.769,6.451-1.381,11.587-1.994,16.722
		c0.483,60.091,33.871,100.382,83.271,134.396c-20.23-8.546-37.203-15.716-54.177-22.887c-4.421-1.146-8.809-2.447-13.269-3.409
		c-17.518-3.781-25.157,0.536-31.602,17.689c-1.621,29.872,15.952,48.392,38.88,63.874c-5.572,2.993-10.308,5.537-15.043,8.08
		c-3.543,5.084-7.449,9.99-8.1,16.493c4.365,26.112,27.152,36.218,45.598,51.283c-5.568,2.757-10.281,5.091-14.995,7.426
		c-6.557,7.147-12.663,14.513-12.134,25.086c11.657,28.108,38.353,31.768,63.27,38.189c-7.234,15.304-6.19,25.976,3.482,35.375
		c9.32,9.056,21.354,12.86,34.272,15.941c-4.634,5.013-8.504,9.201-12.375,13.388c-1.283,3.807-2.566,7.613-3.849,11.418
		c6.047,25.283,29.534,26.8,48.516,35.03c-3.003,4.787-5.779,9.213-8.554,13.638c-0.426,3.127-0.851,6.254-1.275,9.379
		c-0.438,21.218,9.069,33.444,31.752,39.209c10.324,2.624,21.046,3.679,31.447,5.422c0.846,35.374,4.412,37.745,59.642,39.986
		c2.596,12.392,7.946,22.978,20.559,28.617c12.408,5.546,25.053,2.081,36.782,1.213c15.852,33.14,41.174,19.308,64.227,14.064
		c3.687,20.093,10.981,28.752,24.996,29.698c14.268,0.964,25.629-7.915,38.753-13.23c-1.698,6.958-3.715,12.489-4.296,18.167
		c-1.285,12.562,4.911,19.154,17.606,18.629c6.288-0.26,12.502-1.566,18.784-3.089c10.892-2.641,17.648-12.007,29.059-14.981
		c-0.906,3.362-1.638,5.895-2.271,8.454c-5.929,23.953,1.69,32.745,25.646,28.481c9.939-1.769,19.531-5.488,29.621-8.42
		c0.051,10.324-1.052,19.992,0.869,29.625c2.009,10.076,7.695,15.023,17.993,13.602c7.413-1.023,14.738-2.68,22.682-4.163
		c-2.163,11.869-5.768,23.331,6.592,31.021c10.189,6.338,21.442,3.64,32.578,3.021c-2.74,10.002-3.312,19.04,3.329,27.238
		c6.738,4.131,14.047,3.897,21.36,2.285c7.042-1.553,13.978-3.588,20.985-5.417c4.227,25.49,7.059,27.755,34.263,27.646
		c3.198,10.685,7.829,20.073,19.914,23.591c11.723,3.413,21.588-4.407,32.682-5.399c3.173,10.137-1.979,20.843,4.476,30.484
		c18.517,0.462,35.893-4.661,53.982-9.714c-4.15,14.209-4.619,27.716-2.877,41.63c12.136,3.707,21.014-3.433,30.817-7.276
		l-44.625,179.48c2.166,11.457,3.772,20.003,5.402,28.525c4.797,16.533,9.594,33.089,14.391,49.623
		c4.96,1.607,4.564-2.445,5.379-5.146c2.398-8.034,3.376-16.533,8.36-25.848c2.957,11.061,5.472,20.515,7.987,29.945
		c5.123,12.086,10.246,24.148,15.346,36.233c7.591-4.773,1.304-12.901,5.356-19.746c3.353,9.71,7.684,18.326,8.779,28.106
		c6.287,13.715,12.551,27.431,18.838,41.146c3.889-5.682,3.027-12.598,4.844-18.838c1.7-5.798,2.678-11.783,5.752-17.441
		c2.189,8.499,4.378,16.998,6.544,25.475c4.401,10.898,8.779,21.773,13.156,32.67c2.352,0.512,3.539,0.093,4.145-0.792
		c0.978-1.397,0.442-3.982,0.885-5.682c1.118-4.401,1.886-8.919,3.167-15.113c2.235,12.901,4.168,24.054,6.101,35.185
		c1.257,0.186,2.491,0.349,3.772,0.512c1.281-0.163,2.515-0.326,3.773-0.512c1.932-11.131,3.865-22.285,6.101-35.185
		c1.281,6.194,2.049,10.711,3.167,15.113c0.721,2.771-1.094,7.824,5.03,6.474c4.378-10.898,8.756-21.773,13.156-32.67
		c0.023-0.14,0.07-0.256,0.093-0.396c2.143-8.337,4.285-16.72,6.45-25.079c3.074,5.658,4.052,11.643,5.751,17.441
		c1.816,6.24,0.955,13.156,4.844,18.838c6.287-13.715,12.551-27.431,18.839-41.146c1.094-9.78,5.425-18.396,8.779-28.106
		c4.052,6.846-2.236,14.973,5.355,19.746c5.1-12.085,10.223-24.147,15.346-36.233c2.515-9.43,5.03-18.885,7.987-29.945
		c4.984,9.314,5.961,17.813,8.36,25.848c0.815,2.701,0.419,6.753,5.379,5.146c4.796-16.533,9.594-33.089,14.391-49.623
		c1.63-8.522,3.237-17.069,5.402-28.525l-44.619-179.464c0.044-0.551,0.088-1.103,0.154-1.651
		c12.022,2.668,21.769,13.259,36.005,8.911c1.742-13.914,1.273-27.421-2.877-41.63c18.089,5.053,35.465,10.176,53.982,9.714
		c6.454-9.641,1.303-20.347,4.475-30.484c11.094,0.992,20.958,8.812,32.682,5.399c12.085-3.518,16.716-12.906,19.914-23.591
		c27.204,0.109,30.036-2.157,34.263-27.646c7.007,1.829,13.943,3.865,20.985,5.417c7.313,1.612,14.623,1.846,21.36-2.285
		c6.641-8.198,6.069-17.236,3.329-27.238c11.136,0.619,22.389,3.317,32.578-3.021c12.36-7.689,8.755-19.151,6.592-31.021
		c7.944,1.483,15.27,3.14,22.682,4.163c10.298,1.421,15.985-3.526,17.993-13.602c1.921-9.633,0.818-19.301,0.869-29.625
		c10.09,2.932,19.682,6.651,29.621,8.42c23.956,4.264,31.575-4.528,25.646-28.481c-0.633-2.558-1.365-5.091-2.271-8.454
		c11.411,2.973,18.167,12.34,29.06,14.981c6.282,1.523,12.496,2.828,18.784,3.089c12.695,0.525,18.891-6.067,17.606-18.629
		c-0.581-5.678-2.598-11.208-4.296-18.167c13.125,5.314,24.485,14.193,38.753,13.23c14.015-0.946,21.309-9.604,24.996-29.698
		c23.053,5.243,48.375,19.076,64.227-14.064c11.729,0.868,24.374,4.334,36.782-1.213c12.613-5.638,17.963-16.225,20.559-28.617
		c55.23-2.24,58.797-4.612,59.642-39.986c10.4-1.743,21.123-2.798,31.447-5.422c22.682-5.766,32.19-17.992,31.752-39.209
		c-0.424-3.126-0.849-6.252-1.275-9.379c-2.776-4.425-5.552-8.851-8.554-13.638c18.982-8.23,42.469-9.747,48.516-35.03
		c-1.283-3.805-2.566-7.612-3.849-11.418c-3.87-4.188-7.741-8.375-12.375-13.388c12.918-3.081,24.952-6.885,34.272-15.941
		c9.672-9.399,10.716-20.071,3.482-35.375c24.917-6.421,51.613-10.081,63.271-38.189c0.529-10.574-5.577-17.939-12.134-25.086
		c-4.714-2.334-9.427-4.669-14.995-7.426c18.446-15.065,41.233-25.171,45.598-51.283c-0.651-6.503-4.557-11.409-8.1-16.493
		C1947.324,722.43,1942.589,719.887,1937.017,716.894z M984.425,923.309c0.605-3.12,1.63-8.243,0.21-9.989l3.283-3.354
		c-0.047,1.164-0.023,2.399-0.07,3.609c-0.279,6.055,1.467,6.916,6.38,3.33c3.377-2.468,7.056-3.469,11.48-1.001
		c2.096,1.164,5.239,5.822,7.451,1.886c1.024-1.77,1.7-4.005,1.746-6.357l2.678,2.748c-0.139,0.373-0.209,0.769-0.302,1.118
		c-1.188,4.611,0.838,8.802,2.468,12.831c1.28,3.121,1.793,5.891,1.024,9.244c-5.216-2.608-4.215-9.105-9.547-12.341
		c0.885,14.6-4.168,27.57-4.471,41.076c-0.326,14.554-3.586,34.719-7.405,38.165c-2.934-26.616-5.798-52.673-8.709-79.148
		c-4.541,3.446-3.446,9.919-8.593,11.899C980.141,931.879,983.564,927.827,984.425,923.309z"/>
</g>
<g id="Layer_1">
</g>
</svg>
